<svg xmlns="http://www.w3.org/2000/svg" viewBox="0 0 780 470" width="780" height="470" role="img" aria-labelledby="t d">
<title id='t'>Progresión del retrieval a lo largo del Hito 4</title>
<desc id='d'>Recall@3 de chunk y acierto de ruteo en las cuatro configuraciones: el recall sube de 78,2 % a 90,9 % y el ruteo de 66,7 % a 82,2 %.</desc>
<rect width="780" height="470" fill="#fcfcfb"/>
<g font-family="Segoe UI, Helvetica, Arial, sans-serif">
<text x="66" y="30" font-size="17" font-weight="700" fill="#0b0b0b">Cada cambio del retrieval, medido contra la línea base</text>
<text x="66" y="49" font-size="12.5" fill="#52514e">Set dorado de 100 preguntas · 3 repeticiones a temperature=0</text>
<line x1="66" y1="348.0" x2="752" y2="348.0" stroke="#e3e2df" stroke-width="1"/>
<text x="56" y="352.0" font-size="11.5" text-anchor="end" fill="#52514e">0 %</text>
<line x1="66" y1="276.5" x2="752" y2="276.5" stroke="#e3e2df" stroke-width="1"/>
<text x="56" y="280.5" font-size="11.5" text-anchor="end" fill="#52514e">25 %</text>
<line x1="66" y1="205.0" x2="752" y2="205.0" stroke="#e3e2df" stroke-width="1"/>
<text x="56" y="209.0" font-size="11.5" text-anchor="end" fill="#52514e">50 %</text>
<line x1="66" y1="133.5" x2="752" y2="133.5" stroke="#e3e2df" stroke-width="1"/>
<text x="56" y="137.5" font-size="11.5" text-anchor="end" fill="#52514e">75 %</text>
<line x1="66" y1="62.0" x2="752" y2="62.0" stroke="#e3e2df" stroke-width="1"/>
<text x="56" y="66.0" font-size="11.5" text-anchor="end" fill="#52514e">100 %</text>
<g fill="#2a78d6"><path d="M98.8,348.0 L98.8,128.3 Q98.8,124.3 102.8,124.3 L146.8,124.3 Q150.8,124.3 150.8,128.3 L150.8,348.0 Z"/></g>
<text x="124.8" y="117.3" font-size="12" font-weight="600" text-anchor="middle" fill="#0b0b0b">78,2 %</text>
<g fill="#eb6834"><path d="M152.8,348.0 L152.8,161.2 Q152.8,157.2 156.8,157.2 L200.8,157.2 Q204.8,157.2 204.8,161.2 L204.8,348.0 Z"/></g>
<text x="178.8" y="150.2" font-size="12" font-weight="600" text-anchor="middle" fill="#0b0b0b">66,7 %</text>
<text x="151.8" y="370" font-size="12.5" text-anchor="middle" fill="#0b0b0b">Línea base</text>
<g fill="#2a78d6"><path d="M270.2,348.0 L270.2,118.1 Q270.2,114.1 274.2,114.1 L318.2,114.1 Q322.2,114.1 322.2,118.1 L322.2,348.0 Z"/></g>
<text x="296.2" y="107.1" font-size="12" font-weight="600" text-anchor="middle" fill="#0b0b0b">81,8 %</text>
<g fill="#eb6834"><path d="M324.2,348.0 L324.2,151.8 Q324.2,147.8 328.2,147.8 L372.2,147.8 Q376.2,147.8 376.2,151.8 L376.2,348.0 Z"/></g>
<text x="350.2" y="140.8" font-size="12" font-weight="600" text-anchor="middle" fill="#0b0b0b">70,0 %</text>
<text x="323.2" y="370" font-size="12.5" text-anchor="middle" fill="#0b0b0b">H4.1</text>
<text x="323.2" y="384" font-size="12.5" text-anchor="middle" fill="#52514e">embeddings</text>
<g fill="#2a78d6"><path d="M441.8,348.0 L441.8,112.9 Q441.8,108.9 445.8,108.9 L489.8,108.9 Q493.8,108.9 493.8,112.9 L493.8,348.0 Z"/></g>
<text x="467.8" y="101.9" font-size="12" font-weight="600" text-anchor="middle" fill="#0b0b0b">83,6 %</text>
<g fill="#eb6834"><path d="M495.8,348.0 L495.8,148.7 Q495.8,144.7 499.8,144.7 L543.8,144.7 Q547.8,144.7 547.8,148.7 L547.8,348.0 Z"/></g>
<text x="521.8" y="137.7" font-size="12" font-weight="600" text-anchor="middle" fill="#0b0b0b">71,1 %</text>
<text x="494.8" y="370" font-size="12.5" text-anchor="middle" fill="#0b0b0b">H4.2</text>
<text x="494.8" y="384" font-size="12.5" text-anchor="middle" fill="#52514e">troceado</text>
<g fill="#2a78d6"><path d="M613.2,348.0 L613.2,92.0 Q613.2,88.0 617.2,88.0 L661.2,88.0 Q665.2,88.0 665.2,92.0 L665.2,348.0 Z"/></g>
<text x="639.2" y="81.0" font-size="12" font-weight="600" text-anchor="middle" fill="#0b0b0b">90,9 %</text>
<g fill="#eb6834"><path d="M667.2,348.0 L667.2,116.9 Q667.2,112.9 671.2,112.9 L715.2,112.9 Q719.2,112.9 719.2,116.9 L719.2,348.0 Z"/></g>
<text x="693.2" y="105.9" font-size="12" font-weight="600" text-anchor="middle" fill="#0b0b0b">82,2 %</text>
<text x="666.2" y="370" font-size="12.5" text-anchor="middle" fill="#0b0b0b">H4.3</text>
<text x="666.2" y="384" font-size="12.5" text-anchor="middle" fill="#52514e">reranker</text>
<line x1="66" y1="348" x2="752" y2="348" stroke="#52514e" stroke-width="1.5"/>
<rect x="66" y="409" width="11" height="11" rx="2.5" fill="#2a78d6"/>
<text x="84" y="418" font-size="12.5" fill="#0b0b0b">Recall@3 de chunk (¿trae la ficha correcta?)</text>
<rect x="366" y="409" width="11" height="11" rx="2.5" fill="#eb6834"/>
<text x="384" y="418" font-size="12.5" fill="#0b0b0b">Acierto de ruteo (¿RAG o conocimiento general?)</text>
<text x="66" y="452" font-size="11" fill="#52514e">Fuente: tabla comparativa del ADR-006 (corrida de solo-retrieval). El recall a nivel de fichero está saturado al 100 %, por eso gobierna el de chunk.</text>
</g>
</svg>